<svg width="3098" height="317" viewBox="0 0 3098 317" fill="none" xmlns="http://www.w3.org/2000/svg">
<path d="M240.276 96.2198C241.059 97.0012 241.059 98.2695 240.276 99.0509L68.5524 270.456C60.7449 278.249 48.1019 278.249 40.2944 270.456L6.18155 236.406C-1.64646 228.592 -1.64645 215.909 6.18156 208.095L165.142 49.4302C172.949 41.6372 185.593 41.6372 193.4 49.4303L240.276 96.2198Z" fill="white"/>
<path d="M207.023 187.643C206.24 186.862 206.24 185.594 207.023 184.812L266.615 125.33C267.395 124.551 268.66 124.551 269.44 125.33L351.923 207.659C359.751 215.473 359.751 228.156 351.923 235.97L317.81 270.019C310.003 277.812 297.36 277.812 289.552 270.019L207.023 187.643Z" fill="white"/>
<path d="M557.516 238.69C546.631 229.241 541.029 216.277 541.029 200.504C541.029 163.001 570.504 143.03 612.625 143.03C624.453 143.185 636.183 145.196 647.384 148.987V137.438C647.384 120.347 633.002 109.043 613.678 109.043C595.797 109.043 582.099 117.466 572.975 133.923L545.946 108.701C558.934 85.2133 585.963 72.9565 614.044 72.9565C658.612 72.9565 687.427 95.3946 687.427 137.78V248.847H648.119V235.54C635.13 247.113 618.619 252.632 598.976 252.632C582.44 252.705 568.744 248.163 557.516 238.69ZM607.024 217.668C623.511 217.668 637.209 212.785 647.384 203.019V183.486C635.963 179.033 623.835 176.66 611.575 176.479C592.984 176.479 581.046 184.195 581.046 197.843C581.046 209.269 590.17 217.668 607.024 217.668Z" fill="white"/>
<path d="M747.87 236.249V316.82H707.853V77.1322H747.186V92.5625C759.416 79.5981 775.951 73.0303 795.961 73.0303C820.544 73.0303 840.552 81.4537 856.354 98.6178C872.156 115.782 879.861 137.146 879.861 163.075C879.861 189.005 872.156 210.393 856.354 227.557C840.552 244.722 820.544 252.778 795.961 252.778C778.477 253.114 761.439 247.258 747.87 236.249ZM826.854 201.896C834.842 190.626 839.133 177.161 839.133 163.356C839.133 149.551 834.842 136.085 826.854 124.816C818.701 114.317 807.473 109.06 793.171 109.043C763.671 109.043 747.186 132.531 747.186 163.368C747.186 194.206 763.671 217.669 793.171 217.669C807.554 217.669 818.782 212.412 826.854 201.896Z" fill="white"/>
<path d="M936.118 236.249V316.82H896.103V77.1322H935.44V92.5625C947.669 79.5981 964.202 73.0303 984.207 73.0303C1008.79 73.0303 1028.81 81.4537 1044.61 98.6178C1060.41 115.782 1068.11 137.146 1068.11 163.075C1068.11 189.005 1060.41 210.393 1044.61 227.557C1028.81 244.722 1008.79 252.778 984.207 252.778C966.73 253.109 949.693 247.254 936.118 236.249ZM1015.1 201.896C1023.11 190.633 1027.41 177.165 1027.41 163.356C1027.41 149.546 1023.11 136.079 1015.1 124.816C1007.03 114.317 995.803 109.06 981.422 109.043C951.919 109.043 935.44 132.531 935.44 163.368C935.44 194.206 951.919 217.669 981.422 217.669C995.785 217.669 1007.05 212.412 1015.2 201.896H1015.1Z" fill="white"/>
<path d="M1246.51 174.917H1128.9C1130.65 200.504 1148.47 216.618 1174.17 216.618C1192.79 216.618 1207.55 208.562 1218.42 192.447L1245.45 217.669C1227.18 241.157 1203.33 252.705 1174.17 252.705C1148.56 252.705 1127.5 244.648 1111.7 228.289C1095.9 211.931 1087.82 190.445 1087.82 164.149C1087.82 138.586 1095.17 116.856 1109.6 99.3264C1124.03 81.7955 1143.99 73.0547 1168.3 73.0547C1224.12 73.0547 1246.95 117.565 1246.95 160.951L1246.51 174.917ZM1131 143.03H1204.38C1204.04 125.158 1192.81 109.41 1168.59 109.41C1147.51 109.41 1134.87 124.596 1131 143.03Z" fill="white"/>
<path d="M1365.9 248.848H1299.22C1297.1 248.85 1294.99 248.436 1293.03 247.628C1291.07 246.82 1289.29 245.633 1287.79 244.136C1286.29 242.64 1285.1 240.862 1284.28 238.905C1283.47 236.948 1283.05 234.851 1283.05 232.733V112.901H1253.92V77.1562H1283.05V29.1553H1322.7V77.1562H1424.51V112.901H1404.49H1322.7V211.027H1365.9V248.848Z" fill="white"/>
<path d="M1406.94 7.40063C1411.71 2.69499 1418.14 0.0556641 1424.85 0.0556641C1431.55 0.0556641 1437.98 2.69499 1442.76 7.40063C1445.09 9.71976 1446.95 12.4778 1448.22 15.5158C1449.48 18.5537 1450.13 21.8116 1450.13 25.102C1450.13 28.3924 1449.48 31.6503 1448.22 34.6883C1446.95 37.7262 1445.09 40.4842 1442.76 42.8034C1437.99 47.5208 1431.56 50.1683 1424.85 50.1683C1418.14 50.1683 1411.7 47.5208 1406.94 42.8034C1404.61 40.4809 1402.76 37.7219 1401.5 34.6843C1400.24 31.6469 1399.59 28.3906 1399.59 25.102C1399.59 21.8134 1400.24 18.5571 1401.5 15.5196C1402.76 12.4821 1404.61 9.72305 1406.94 7.40063ZM1404.5 248.823V112.9V77.1319H1444.51V248.823H1404.5Z" fill="white"/>
<path d="M1465.28 77.1562H1596.22V111.143L1512.32 212.761H1600.38V248.848H1463.4V214.934L1546.56 112.974H1465.28V77.1562Z" fill="white"/>
<path d="M1768.38 174.917H1650.77C1652.53 200.504 1670.34 216.618 1696.04 216.618C1714.66 216.618 1729.39 208.562 1740.28 192.447L1767.32 217.669C1749.05 241.157 1725.18 252.705 1696.04 252.705C1670.43 252.705 1649.37 244.648 1633.57 228.289C1617.77 211.931 1609.7 190.445 1609.7 164.149C1609.7 138.586 1617.04 116.856 1631.47 99.3264C1645.9 81.7955 1665.86 73.0547 1690.18 73.0547C1746 73.0547 1768.82 117.565 1768.82 160.951L1768.38 174.917ZM1652.87 143.03H1726.25C1725.91 125.158 1714.68 109.41 1690.47 109.41C1669.39 109.41 1656.74 124.596 1652.87 143.03Z" fill="white"/>
<path d="M1990.46 178.056L1964.94 172.115C1932.56 164.426 1916.37 148.001 1916.37 122.838C1916.37 107.694 1922.19 95.6957 1933.84 86.8422C1945.49 77.9888 1959.35 73.5621 1975.43 73.5621C1998.26 73.5621 2018.53 82.765 2036.24 101.171L2018.76 119.693C2004.78 105.015 1989.76 97.676 1973.68 97.676C1964.36 97.676 1956.79 99.8894 1950.97 104.316C1945.14 108.743 1942.23 114.567 1942.23 121.79C1942.23 134.837 1950.73 143.225 1967.74 146.952L1994.65 153.243C2027.03 160.931 2043.23 177.007 2043.23 201.471C2043.23 216.848 2037.4 229.313 2025.75 238.865C2014.1 248.184 1998.61 252.844 1979.27 252.844C1965.06 252.844 1951.78 249.932 1939.43 244.107C1927.08 238.049 1917.3 230.244 1910.08 220.692L1927.2 202.869C1941.18 220.343 1958.42 229.08 1978.92 229.08C1991.04 229.08 2000.47 226.75 2007.23 222.09C2013.99 217.43 2017.37 211.023 2017.37 202.869C2017.37 190.521 2008.4 182.25 1990.46 178.056Z" fill="white"/>
<path d="M2125.86 252.844C2109.09 252.844 2095.22 248.184 2084.27 238.865C2073.56 229.313 2068.2 216.615 2068.2 200.772C2068.2 183.997 2073.91 170.833 2085.32 161.281C2096.97 151.729 2112.35 146.952 2131.45 146.952C2144.04 146.952 2159.65 149.748 2178.28 155.34V137.866C2178.28 125.285 2174.44 115.499 2166.75 108.51C2159.06 101.287 2148.81 97.676 2136 97.676C2125.98 97.676 2116.89 100.355 2108.74 105.714C2100.82 111.073 2094.99 117.829 2091.26 125.984L2073.44 109.209C2086.95 85.4443 2107.92 73.5621 2136.35 73.5621C2157.32 73.5621 2173.86 79.5032 2185.97 91.3854C2198.09 103.035 2204.15 119.46 2204.15 140.662V249H2178.98V231.176C2165.94 245.621 2148.23 252.844 2125.86 252.844ZM2094.06 201.471C2094.06 210.091 2097.09 216.964 2103.15 222.09C2109.44 227.216 2117.47 229.778 2127.26 229.778C2137.28 229.778 2146.83 227.216 2155.92 222.09C2165.24 216.964 2172.69 210.441 2178.28 202.519V179.454C2161.51 173.862 2146.36 171.066 2132.85 171.066C2120.04 171.066 2110.37 173.862 2103.85 179.454C2097.32 184.812 2094.06 192.151 2094.06 201.471Z" fill="white"/>
<path d="M2246.56 77.7558H2271.72V98.375C2276.84 91.1525 2283.83 85.2114 2292.69 80.5517C2301.54 75.892 2310.98 73.5621 2320.99 73.5621C2344.06 73.5621 2361.07 82.998 2372.02 101.87C2384.83 82.998 2402.65 73.5621 2425.49 73.5621C2469.52 73.5621 2491.54 98.841 2491.54 149.399V249H2465.68V147.302C2465.68 114.218 2452.4 97.676 2425.84 97.676C2411.62 97.676 2400.67 102.685 2392.99 112.704C2385.53 122.489 2381.8 136.468 2381.8 154.641V249H2355.94V149.049C2355.94 114.8 2343.13 97.676 2317.5 97.676C2302.82 97.676 2291.64 102.685 2283.95 112.704C2276.26 122.489 2272.42 136.468 2272.42 154.641V249H2246.56V77.7558Z" fill="white"/>
<path d="M2560.14 226.284V316.798H2534.28V77.7558H2559.44V101.171C2575.05 82.765 2594.5 73.5621 2617.8 73.5621C2641.1 73.5621 2660.2 82.299 2675.12 99.7729C2690.03 116.781 2697.48 137.982 2697.48 163.378C2697.48 188.773 2690.03 209.975 2675.12 226.983C2659.97 244.224 2640.87 252.844 2617.8 252.844C2594.27 252.844 2575.05 243.991 2560.14 226.284ZM2655.89 210.208C2665.91 198.093 2670.92 182.483 2670.92 163.378C2670.92 144.273 2665.91 128.663 2655.89 116.548C2645.64 104.2 2632.13 98.0255 2615.35 98.0255C2598.35 98.0255 2584.72 104.2 2574.47 116.548C2564.45 128.663 2559.44 144.273 2559.44 163.378C2559.44 182.483 2564.45 198.093 2574.47 210.208C2584.72 222.556 2598.35 228.73 2615.35 228.73C2632.13 228.73 2645.64 222.556 2655.89 210.208Z" fill="white"/>
<path d="M2756.05 249H2730.19V4.01611H2756.05V249Z" fill="white"/>
<path d="M2943.53 159.534L2943.18 171.416H2815.62C2816.79 189.356 2822.5 203.451 2832.75 213.703C2843 223.721 2856.51 228.73 2873.29 228.73C2892.39 228.73 2908.7 220.343 2922.21 203.568L2940.04 219.993C2921.86 241.894 2899.61 252.844 2873.29 252.844C2847.66 252.844 2827.15 244.69 2811.78 228.381C2796.63 211.839 2789.06 190.521 2789.06 164.426C2789.06 138.332 2796.05 116.781 2810.03 99.7729C2824.24 82.299 2843.23 73.5621 2867 73.5621C2884.47 73.5621 2899.15 78.1053 2911.03 87.1917C2932.7 103.501 2943.53 127.615 2943.53 159.534ZM2867.69 98.0255C2853.48 98.0255 2841.95 102.569 2833.1 111.655C2824.48 120.742 2819 132.973 2816.67 148.35H2917.32C2916.16 132.973 2911.03 120.742 2901.94 111.655C2893.09 102.569 2881.67 98.0255 2867.69 98.0255Z" fill="white"/>
<path d="M3044.79 178.056L3019.28 172.115C2986.89 164.426 2970.7 148.001 2970.7 122.838C2970.7 107.694 2976.52 95.6957 2988.17 86.8422C2999.82 77.9888 3013.69 73.5621 3029.76 73.5621C3052.59 73.5621 3072.86 82.765 3090.57 101.171L3073.1 119.693C3059.12 105.015 3044.09 97.676 3028.01 97.676C3018.7 97.676 3011.12 99.8894 3005.3 104.316C2999.47 108.743 2996.56 114.567 2996.56 121.79C2996.56 134.837 3005.07 143.225 3022.07 146.952L3048.98 153.243C3081.37 160.931 3097.56 177.007 3097.56 201.471C3097.56 216.848 3091.74 229.313 3080.09 238.865C3068.44 248.184 3052.94 252.844 3033.61 252.844C3019.39 252.844 3006.11 249.932 2993.77 244.107C2981.42 238.049 2971.63 230.244 2964.41 220.692L2981.53 202.869C2995.51 220.343 3012.75 229.08 3033.26 229.08C3045.37 229.08 3054.81 226.75 3061.56 222.09C3068.32 217.43 3071.7 211.023 3071.7 202.869C3071.7 190.521 3062.73 182.25 3044.79 178.056Z" fill="white"/>
</svg>
