<svg width="202" height="36" viewBox="0 0 202 36" fill="none" xmlns="http://www.w3.org/2000/svg">
<path d="M28.325 11.0898L7.08125 32.3334L0 25.2522L21.2438 4.00854L28.325 11.0898Z" fill="#65E6A6"/>
<path d="M24.2311 21.1583L31.3123 14.077L42.438 25.2026L35.3568 32.2839L24.2311 21.1583Z" fill="#65E6A6"/>
<path d="M64.1515 27.1206C62.9167 26.0467 62.2812 24.5733 62.2812 22.7808C62.2812 18.5187 65.6249 16.2489 70.4031 16.2489C71.7448 16.2665 73.0754 16.495 74.3461 16.9259V15.6134C74.3461 13.6711 72.7146 12.3863 70.5225 12.3863C68.4941 12.3863 66.9402 13.3436 65.9052 15.2138L62.8391 12.3475C64.3125 9.67809 67.3786 8.28513 70.5641 8.28513C75.6198 8.28513 78.8885 10.8352 78.8885 15.6523V28.2749H74.4295V26.7626C72.956 28.0779 71.0829 28.705 68.8548 28.705C66.979 28.7133 65.4252 28.1972 64.1515 27.1206ZM69.7677 24.7315C71.6379 24.7315 73.1918 24.1765 74.3461 23.0666V20.8467C73.0505 20.3406 71.6747 20.0709 70.2839 20.0504C68.1751 20.0504 66.8208 20.9272 66.8208 22.4783C66.8208 23.7769 67.8559 24.7315 69.7677 24.7315Z" fill="white"/>
<path d="M85.7451 26.8431V36H81.2055V8.75964H85.6675V10.5133C87.0549 9.03988 88.9306 8.29346 91.2004 8.29346C93.9891 8.29346 96.2589 9.25076 98.0515 11.2015C99.844 13.1522 100.718 15.5801 100.718 18.527C100.718 21.4738 99.844 23.9046 98.0515 25.8553C96.2589 27.806 93.9891 28.7217 91.2004 28.7217C89.2172 28.7598 87.2844 28.0942 85.7451 26.8431ZM94.705 22.939C95.6112 21.6582 96.0978 20.1278 96.0978 18.5589C96.0978 16.99 95.6112 15.4596 94.705 14.1788C93.7801 12.9857 92.5064 12.3882 90.8841 12.3863C87.5376 12.3863 85.6675 15.0557 85.6675 18.5603C85.6675 22.0649 87.5376 24.7315 90.8841 24.7315C92.5157 24.7315 93.7893 24.134 94.705 22.939Z" fill="white"/>
<path d="M107.1 26.8431V36H102.561V8.75964H107.022V10.5133C108.41 9.03988 110.286 8.29346 112.555 8.29346C115.344 8.29346 117.614 9.25076 119.406 11.2015C121.199 13.1522 122.073 15.5801 122.073 18.527C122.073 21.4738 121.199 23.9046 119.406 25.8553C117.614 27.806 115.344 28.7217 112.555 28.7217C110.572 28.7593 108.64 28.0938 107.1 26.8431ZM116.06 22.939C116.968 21.6589 117.456 20.1283 117.456 18.5589C117.456 16.9895 116.968 15.4588 116.06 14.1788C115.144 12.9857 113.871 12.3882 112.239 12.3863C108.893 12.3863 107.022 15.0557 107.022 18.5603C107.022 22.0649 108.893 24.7315 112.239 24.7315C113.869 24.7315 115.146 24.134 116.071 22.939H116.06Z" fill="white"/>
<path d="M142.31 19.8728H128.968C129.168 22.7808 131.188 24.6121 134.105 24.6121C136.217 24.6121 137.89 23.6965 139.124 21.8651L142.19 24.7315C140.118 27.4008 137.412 28.7133 134.105 28.7133C131.199 28.7133 128.81 27.7976 127.018 25.9385C125.225 24.0794 124.309 21.6375 124.309 18.6491C124.309 15.7438 125.142 13.2743 126.779 11.2819C128.416 9.28962 130.68 8.29624 133.439 8.29624C139.771 8.29624 142.36 13.3547 142.36 18.2856L142.31 19.8728ZM129.207 16.2489H137.531C137.493 14.2177 136.219 12.4279 133.472 12.4279C131.08 12.4279 129.645 14.1539 129.207 16.2489Z" fill="white"/>
<path d="M155.854 28.2749H148.289C148.049 28.2753 147.81 28.2282 147.588 28.1363C147.365 28.0444 147.163 27.9096 146.993 27.7395C146.822 27.5694 146.687 27.3674 146.595 27.145C146.503 26.9226 146.455 26.6843 146.455 26.4435V12.8247H143.15V8.76239H146.455V3.30712H150.953V8.76239H162.502V12.8247H160.232H150.953V23.9767H155.854V28.2749Z" fill="white"/>
<path d="M160.51 0.834749C161.05 0.299956 161.78 0 162.541 0C163.302 0 164.031 0.299956 164.572 0.834749C164.837 1.09832 165.048 1.41176 165.192 1.75702C165.335 2.10228 165.409 2.47253 165.409 2.84649C165.409 3.22045 165.335 3.5907 165.192 3.93596C165.048 4.28122 164.837 4.59466 164.572 4.85823C164.032 5.39437 163.302 5.69525 162.541 5.69525C161.78 5.69525 161.05 5.39437 160.51 4.85823C160.245 4.59429 160.035 4.28073 159.892 3.93552C159.749 3.59031 159.675 3.22024 159.675 2.84649C159.675 2.47274 159.749 2.10267 159.892 1.75746C160.035 1.41226 160.245 1.09869 160.51 0.834749ZM160.232 28.2721V12.8247V8.75964H164.772V28.2721H160.232Z" fill="white"/>
<path d="M167.128 8.76239H181.981V12.6249L172.464 24.1737H182.453V28.2749H166.914V24.4207L176.348 12.8331H167.128V8.76239Z" fill="white"/>
<path d="M201.51 19.8728H188.169C188.369 22.7808 190.389 24.6121 193.305 24.6121C195.416 24.6121 197.088 23.6965 198.322 21.8651L201.391 24.7315C199.318 27.4008 196.61 28.7133 193.305 28.7133C190.4 28.7133 188.011 27.7976 186.218 25.9385C184.426 24.0794 183.51 21.6375 183.51 18.6491C183.51 15.7438 184.343 13.2743 185.98 11.2819C187.617 9.28962 189.881 8.29624 192.639 8.29624C198.971 8.29624 201.56 13.3547 201.56 18.2856L201.51 19.8728ZM188.408 16.2489H196.732C196.693 14.2177 195.42 12.4279 192.673 12.4279C190.281 12.4279 188.846 14.1539 188.408 16.2489Z" fill="white"/>
</svg>
