<svg width="268" height="48" viewBox="0 0 268 48" fill="none" xmlns="http://www.w3.org/2000/svg">
<g clip-path="url(#clip0_2329_1607)">
<path d="M84.4516 36.161C82.8053 34.729 81.9578 32.7644 81.9578 30.3744C81.9578 24.6915 86.4159 21.6653 92.787 21.6653C94.576 21.6888 96.35 21.9936 98.0443 22.568V20.8181C98.0443 18.2283 95.869 16.5152 92.9462 16.5152C90.2417 16.5152 88.1698 17.7916 86.7897 20.2851L82.7015 16.4634C84.6661 12.9042 88.7543 11.0469 93.0017 11.0469C99.7427 11.0469 104.101 14.4471 104.101 20.8698V37.7001H98.1553V35.6838C96.191 37.4374 93.6934 38.2736 90.7227 38.2736C88.2216 38.2845 86.1497 37.5963 84.4516 36.161ZM91.9398 32.9754C94.4333 32.9754 96.5052 32.2355 98.0443 30.7556V27.7958C96.3167 27.1211 94.4826 26.7612 92.628 26.7339C89.8162 26.7339 88.0106 27.9031 88.0106 29.9712C88.0106 31.7028 89.3907 32.9754 91.9398 32.9754Z" fill="#0A1634"/>
<path d="M113.243 35.7909V48H107.19V11.6795H113.14V14.0178C114.989 12.0532 117.49 11.058 120.517 11.058C124.235 11.058 127.261 12.3344 129.652 14.9352C132.042 17.5363 133.207 20.7735 133.207 24.7028C133.207 28.632 132.042 31.873 129.652 34.4738C127.261 37.0749 124.235 38.2958 120.517 38.2958C117.872 38.3466 115.295 37.459 113.243 35.7909ZM125.19 30.5853C126.398 28.8775 127.047 26.8373 127.047 24.7454C127.047 22.6532 126.398 20.613 125.19 18.9052C123.956 17.3143 122.258 16.5176 120.095 16.5151C115.633 16.5151 113.14 20.0744 113.14 24.747C113.14 29.4199 115.633 32.9754 120.095 32.9754C122.271 32.9754 123.969 32.1787 125.19 30.5853Z" fill="#0A1634"/>
<path d="M141.716 35.7909V48H135.664V11.6795H141.613V14.0178C143.463 12.0532 145.964 11.058 148.99 11.058C152.709 11.058 155.735 12.3344 158.125 14.9352C160.515 17.5363 161.68 20.7735 161.68 24.7028C161.68 28.632 160.515 31.873 158.125 34.4738C155.735 37.0749 152.709 38.2958 148.99 38.2958C146.346 38.3459 143.769 37.4586 141.716 35.7909ZM153.663 30.5853C154.874 28.8787 155.524 26.8379 155.524 24.7454C155.524 22.6526 154.874 20.6118 153.663 18.9052C152.442 17.3143 150.744 16.5176 148.568 16.5151C144.106 16.5151 141.613 20.0744 141.613 24.747C141.613 29.4199 144.106 32.9754 148.568 32.9754C150.741 32.9754 152.445 32.1787 153.678 30.5853H153.663Z" fill="#0A1634"/>
<path d="M188.663 26.4971H170.874C171.141 30.3743 173.834 32.8161 177.723 32.8161C180.539 32.8161 182.77 31.5955 184.415 29.1534L188.504 32.9754C185.74 36.5346 182.133 38.2845 177.723 38.2845C173.849 38.2845 170.663 37.0635 168.273 34.5847C165.883 32.1059 164.662 28.8502 164.662 24.8654C164.662 20.9917 165.772 17.699 167.955 15.0427C170.138 12.3861 173.157 11.0616 176.834 11.0616C185.277 11.0616 188.729 17.8062 188.729 24.3807L188.663 26.4971ZM171.192 21.6652H182.292C182.24 18.9569 180.542 16.5706 176.879 16.5706C173.69 16.5706 171.777 18.8719 171.192 21.6652Z" fill="#0A1634"/>
<path d="M206.721 37.7001H196.636C196.315 37.7004 195.997 37.6377 195.7 37.5151C195.403 37.3928 195.134 37.2129 194.907 36.9862C194.68 36.7595 194.5 36.4899 194.377 36.1936C194.254 35.897 194.19 35.579 194.19 35.2583V17.0996H189.784V11.6833H194.19V4.40955H200.188V11.6833H215.586V17.0996H212.56H200.188V31.969H206.721V37.7001Z" fill="#0A1634"/>
<path d="M212.93 1.11302C213.651 0.399946 214.624 0 215.638 0C216.652 0 217.625 0.399946 218.346 1.11302C218.7 1.46443 218.981 1.88237 219.172 2.34271C219.363 2.80307 219.462 3.29673 219.462 3.79535C219.462 4.29396 219.363 4.78762 219.172 5.24796C218.981 5.70832 218.7 6.12626 218.346 6.47767C217.626 7.19253 216.653 7.5937 215.638 7.5937C214.623 7.5937 213.65 7.19253 212.93 6.47767C212.577 6.12576 212.297 5.70766 212.106 5.24739C211.915 4.78709 211.817 4.29368 211.817 3.79535C211.817 3.29701 211.915 2.80357 212.106 2.3433C212.297 1.88303 212.577 1.46493 212.93 1.11302ZM212.56 37.6963V17.0996V11.6796H218.613V37.6963H212.56Z" fill="#0A1634"/>
<path d="M221.753 11.6832H241.558V16.8333L228.868 32.2316H242.187V37.7H221.468V32.5609L234.048 17.1108H221.753V11.6832Z" fill="#0A1634"/>
<path d="M267.597 26.4971H249.809C250.075 30.3743 252.768 32.8161 256.657 32.8161C259.471 32.8161 261.701 31.5955 263.346 29.1534L267.438 32.9754C264.674 36.5346 261.063 38.2845 256.657 38.2845C252.783 38.2845 249.598 37.0635 247.208 34.5847C244.818 32.1059 243.597 28.8502 243.597 24.8654C243.597 20.9917 244.707 17.699 246.889 15.0427C249.072 12.3861 252.091 11.0616 255.769 11.0616C264.212 11.0616 267.664 17.8062 267.664 24.3807L267.597 26.4971ZM250.127 21.6652H261.226C261.174 18.9569 259.476 16.5706 255.813 16.5706C252.624 16.5706 250.711 18.8719 250.127 21.6652Z" fill="#0A1634"/>
<path d="M36.5334 14.6003C36.6551 14.7223 36.6551 14.9048 36.5334 15.0268L10.3915 41.1229C9.20379 42.3106 7.27022 42.3106 6.08255 41.1229L0.890684 35.9465C-0.296894 34.7588 -0.296894 32.8252 0.890684 31.6375L25.0837 7.47491C26.2714 6.28733 28.205 6.28733 29.3926 7.47491L36.5334 14.6003Z" fill="#0A1634"/>
<path d="M31.4631 28.5164C31.3414 28.3944 31.3414 28.1966 31.4631 28.09L40.5374 19.031C40.6594 18.909 40.8419 18.909 40.9638 19.031L53.5247 31.5614C54.7123 32.7491 54.7123 34.6827 53.5247 35.8703L48.3328 41.0468C47.1452 42.2345 45.2116 42.2345 44.0239 41.0468L31.4631 28.501V28.5164Z" fill="#0A1634"/>
</g>
<defs>
<clipPath id="clip0_2329_1607">
<rect width="267.664" height="48" fill="white"/>
</clipPath>
</defs>
</svg>
